# xmcd CD database file
#
# Track frame offsets:
#	150
#	14900
#	32362
#	52525
#	70742
#	88912
#	110032
#	139057
#	155812
#	176605
#	189775
#	205655
#	229820
#	246132
#	265452
#	286757
#	312525
#
# Disc length: 4259 seconds
#
# Revision: 7
# Processed by: cddbd v1.5.2PL0 Copyright (c) Steve Scherf et al.
# Submitted via: CDex 1.70beta3
#
DISCID=ee10a111
DTITLE=ふきのとう - GOLDEN J-POP/THE BEST ふきのとう Disc 2
DYEAR=1997
DGENRE=J-Pop
TTITLE0=夕暮れの街
TTITLE1=思い出通り雨
TTITLE2=やさしさとして想い出として
TTITLE3=風来坊
TTITLE4=もの憂げな10月
TTITLE5=ガス燈
TTITLE6=水車
TTITLE7=鈍色の空
TTITLE8=静寂
TTITLE9=恋心
TTITLE10=夜
TTITLE11=ステーション
TTITLE12=白い冬
TTITLE13=雪どけ水
TTITLE14=浮雲
TTITLE15=サヨナラ
TTITLE16=遥かなる海の星達
EXTD=YEAR: 1997
EXTT0=
EXTT1=
EXTT2=
EXTT3=
EXTT4=
EXTT5=
EXTT6=
EXTT7=
EXTT8=
EXTT9=
EXTT10=
EXTT11=
EXTT12=
EXTT13=
EXTT14=
EXTT15=
EXTT16=
PLAYORDER=
